HIERARCHY
ROOT Hips
{
	OFFSET -0.001795 -0.223333 0.028219
	CHANNELS 6 Xposition Yposition Zposition Zrotation Yrotation Xrotation 
	JOINT LeftUpLeg
	{
		OFFSET 0.069520 -0.091406 -0.006815
		CHANNELS 3 Zrotation Yrotation Xrotation
		JOINT LeftLeg
		{
			OFFSET 0.034277 -0.375199 -0.004496
			CHANNELS 3 Zrotation Yrotation Xrotation
			JOINT LeftFoot
			{
				OFFSET -0.013596 -0.397961 -0.043693
				CHANNELS 3 Zrotation Yrotation Xrotation
				JOINT LeftToe
				{
					OFFSET 0.026358 -0.055791 0.119288
					CHANNELS 3 Zrotation Yrotation Xrotation
					End Site
					{
						OFFSET 0.000000 0.000000 0.000000
					}
				}
			}
		}
	}
	JOINT RightUpLeg
	{
		OFFSET -0.067670 -0.090522 -0.004320
		CHANNELS 3 Zrotation Yrotation Xrotation
		JOINT RightLeg
		{
			OFFSET -0.038290 -0.382569 -0.008850
			CHANNELS 3 Zrotation Yrotation Xrotation
			JOINT RightFoot
			{
				OFFSET 0.015774 -0.398415 -0.042312
				CHANNELS 3 Zrotation Yrotation Xrotation
				JOINT RightToe
				{
					OFFSET -0.025372 -0.048144 0.123348
					CHANNELS 3 Zrotation Yrotation Xrotation
					End Site
					{
						OFFSET 0.000000 0.000000 0.000000
					}
				}
			}
		}
	}
	JOINT Spine
	{
		OFFSET -0.002533 0.108963 -0.026696
		CHANNELS 3 Zrotation Yrotation Xrotation
		JOINT Spine1
		{
			OFFSET 0.005487 0.135180 0.001092
			CHANNELS 3 Zrotation Yrotation Xrotation
			JOINT Spine2
			{
				OFFSET 0.001457 0.052922 0.025425
				CHANNELS 3 Zrotation Yrotation Xrotation
				JOINT Neck
				{
					OFFSET -0.002778 0.213870 -0.042857
					CHANNELS 3 Zrotation Yrotation Xrotation
					JOINT Head
					{
						OFFSET 0.005152 0.064970 0.051349
						CHANNELS 3 Zrotation Yrotation Xrotation
						End Site
						{
							OFFSET 0.000000 0.000000 0.000000
						}
					}
				}
				JOINT LeftShoulder
				{
					OFFSET 0.078845 0.121749 -0.034090
					CHANNELS 3 Zrotation Yrotation Xrotation
					JOINT LeftArm
					{
						OFFSET 0.090977 0.030469 -0.008868
						CHANNELS 3 Zrotation Yrotation Xrotation
						JOINT LeftForeArm
						{
							OFFSET 0.259612 -0.012772 -0.027456
							CHANNELS 3 Zrotation Yrotation Xrotation
							JOINT LeftHand
							{
								OFFSET 0.249234 0.008986 -0.001171
								CHANNELS 3 Zrotation Yrotation Xrotation
								End Site
								{
									OFFSET 0.000000 0.000000 0.000000
								}
							}
						}
					}
				}
				JOINT RightShoulder
				{
					OFFSET -0.081759 0.118833 -0.038615
					CHANNELS 3 Zrotation Yrotation Xrotation
					JOINT RightArm
					{
						OFFSET -0.096012 0.032551 -0.009143
						CHANNELS 3 Zrotation Yrotation Xrotation
						JOINT RightForeArm
						{
							OFFSET -0.253742 -0.013329 -0.021401
							CHANNELS 3 Zrotation Yrotation Xrotation
							JOINT RightHand
							{
								OFFSET -0.255298 0.007772 -0.005559
								CHANNELS 3 Zrotation Yrotation Xrotation
								End Site
								{
									OFFSET 0.000000 0.000000 0.000000
								}
							}
						}
					}
				}
			}
		}
	}
}
MOTION
Frames: 15
Frame Time: 0.050000
0.056372 0.936997 0.259894 -0.730636 3.807947 5.496612 1.458312 -0.340689 -3.846760 1.465770 -0.148452 0.001923 -2.138209 -2.540475 3.463793 0.000000 0.000000 0.000000 0.881713 0.960484 -9.212748 -4.444888 1.241710 10.227785 -2.011079 -6.990330 6.392186 0.000000 0.000000 0.000000 -3.586121 0.128788 -10.837631 3.299347 -1.538455 -0.498806 1.478639 -4.563668 -4.429246 -0.628434 1.284768 -15.832703 0.000000 0.000000 0.000000 -7.324610 -11.408544 4.268144 -71.922666 -64.628744 41.109027 123.027848 -38.787187 -60.301946 0.000000 0.000000 0.000000 3.960359 15.653278 5.337832 65.622549 63.115753 34.601281 -123.876783 41.840041 -67.054941 0.000000 0.000000 0.000000 
0.056521 0.937462 0.259291 -1.005140 3.628377 5.687090 1.810289 -0.366900 -4.190815 1.320631 -0.142472 0.181641 -2.053059 -2.344989 3.527995 0.000000 0.000000 0.000000 1.437618 1.001722 -9.338717 -4.965371 1.323365 9.917511 -1.894114 -6.831533 6.697903 0.000000 0.000000 0.000000 -3.316796 0.154019 -11.047363 3.557103 -1.653793 -0.574200 1.730553 -4.776134 -4.190080 -0.602503 1.212502 -15.308297 0.000000 0.000000 0.000000 -7.642757 -11.870999 4.536805 -69.137153 -65.844909 40.259016 123.959713 -36.723606 -57.986648 0.000000 0.000000 0.000000 3.717794 15.285017 5.160120 68.038467 63.968195 36.754007 -125.763099 41.127633 -68.193122 0.000000 0.000000 0.000000 
0.056646 0.937706 0.258574 -1.105373 3.701195 5.653895 1.858848 -0.384064 -4.422970 1.423353 -0.170474 0.545425 -2.059311 -2.369538 3.499074 0.000000 0.000000 0.000000 1.665880 1.006753 -9.277165 -5.181250 1.355097 9.785947 -1.900432 -6.880540 6.860555 0.000000 0.000000 0.000000 -3.158630 0.163236 -10.919046 3.490344 -1.611296 -0.717138 2.107488 -4.907493 -3.953473 -0.838992 1.320252 -15.079567 0.000000 0.000000 0.000000 -8.118431 -12.260583 4.764761 -67.479853 -66.822330 39.925440 125.893170 -35.108193 -57.350642 0.000000 0.000000 0.000000 4.415228 14.991390 5.036094 70.064358 64.363221 38.414267 -127.721443 40.095658 -68.868109 0.000000 0.000000 0.000000 
0.056672 0.937870 0.257528 -1.297095 3.583601 5.731633 1.986485 -0.406563 -4.735144 1.538116 -0.197356 0.837250 -1.969421 -2.223314 3.448981 0.000000 0.000000 0.000000 1.843513 1.070754 -9.772954 -5.148550 1.392337 10.336400 -1.843476 -6.810784 7.020827 0.000000 0.000000 0.000000 -2.966624 0.180129 -11.111749 3.690847 -1.692031 -0.889020 2.183775 -5.057404 -3.309124 -0.495544 1.098204 -15.106596 0.000000 0.000000 0.000000 -8.381082 -12.215184 4.803588 -66.297089 -67.337888 39.497925 127.606611 -34.171317 -57.403757 0.000000 0.000000 0.000000 4.776781 14.995226 5.023742 72.792165 64.850186 40.633115 -130.039606 39.326907 -70.335813 0.000000 0.000000 0.000000 
0.056596 0.937667 0.255901 -1.470506 3.612156 5.697825 2.031537 -0.430399 -5.064550 1.799129 -0.248920 1.279749 -1.899593 -2.195268 3.241549 0.000000 0.000000 0.000000 2.146873 1.122380 -10.079660 -5.337771 1.462385 10.745713 -1.867120 -6.872430 7.071675 0.000000 0.000000 0.000000 -2.763249 0.192850 -10.897914 3.609709 -1.653844 -0.890441 2.330533 -4.875790 -3.023922 -0.353779 1.043050 -15.462393 0.000000 0.000000 0.000000 -8.620949 -12.347608 4.860354 -66.464933 -67.878451 40.019209 128.589993 -33.574303 -57.512998 0.000000 0.000000 0.000000 5.583580 14.945339 5.028438 74.432907 64.653396 41.693118 -131.994128 39.016803 -72.044174 0.000000 0.000000 0.000000 
0.056309 0.937281 0.253857 -1.585890 3.693702 5.636213 2.176116 -0.450898 -5.367749 1.802616 -0.269690 1.670861 -1.864024 -2.236017 3.031128 0.000000 0.000000 0.000000 2.093080 1.145676 -10.309306 -4.983464 1.411821 11.041265 -1.910642 -6.938448 6.996588 0.000000 0.000000 0.000000 -2.693307 0.194280 -10.677366 3.542243 -1.668769 -0.295374 2.574305 -4.620991 -3.209192 -0.431189 1.119077 -15.714111 0.000000 0.000000 0.000000 -9.613467 -12.201051 4.820041 -64.819205 -67.365896 38.299209 129.567019 -33.585455 -58.666932 0.000000 0.000000 0.000000 6.016028 15.297790 5.197025 73.927811 64.508416 41.306957 -132.779534 38.110290 -71.481659 0.000000 0.000000 0.000000 
0.055822 0.936946 0.251737 -1.824545 3.955688 5.538874 2.311824 -0.464473 -5.578842 2.120159 -0.318569 1.892919 -1.896445 -2.409906 2.815348 0.000000 0.000000 0.000000 2.374559 1.166304 -10.339140 -4.930071 1.399213 11.056937 -2.016659 -7.146397 7.017748 0.000000 0.000000 0.000000 -2.600319 0.194406 -10.548190 3.284077 -1.556330 -0.173679 2.735864 -4.304195 -2.789614 -0.366593 1.110915 -15.695031 0.000000 0.000000 0.000000 -9.910945 -11.932424 4.658042 -65.334533 -66.689253 37.952594 129.353481 -33.971949 -59.186499 0.000000 0.000000 0.000000 6.385352 15.649978 5.403182 72.963166 64.436810 40.659678 -133.133772 37.488177 -70.592382 0.000000 0.000000 0.000000 
0.055200 0.936787 0.249885 -2.153485 3.971819 5.534914 2.455605 -0.472032 -5.716497 2.575745 -0.372312 1.887620 -1.839745 -2.368994 2.680822 0.000000 0.000000 0.000000 2.524894 1.153505 -10.148080 -4.518921 1.271485 10.453343 -1.976758 -7.064955 7.042327 0.000000 0.000000 0.000000 -2.497762 0.201777 -10.561769 3.242996 -1.553351 0.041284 2.939685 -3.684138 -2.589665 -0.498873 1.230538 -15.644442 0.000000 0.000000 0.000000 -10.277469 -11.259997 4.277899 -65.325771 -65.693465 36.953954 128.983451 -34.205759 -59.430239 0.000000 0.000000 0.000000 6.478740 15.783565 5.536891 73.281869 64.430643 41.043648 -133.124732 37.541773 -70.292042 0.000000 0.000000 0.000000 
0.054765 0.936944 0.248337 -2.285409 4.236150 5.686317 2.665809 -0.474293 -5.769860 2.556550 -0.339813 1.397502 -1.996367 -2.577377 2.858133 0.000000 0.000000 0.000000 2.466172 1.143307 -10.095908 -4.096028 1.145965 9.895290 -2.037192 -7.203415 7.182445 0.000000 0.000000 0.000000 -2.430642 0.204323 -10.669296 2.776902 -1.312056 -0.214568 3.143227 -3.688754 -2.109576 -0.277028 1.126218 -16.008092 0.000000 0.000000 0.000000 -10.782059 -10.554723 3.967978 -65.786315 -64.042276 35.812359 129.430160 -34.979886 -61.060327 0.000000 0.000000 0.000000 6.163927 15.906401 5.596202 74.159850 64.182866 41.426028 -133.220677 37.024207 -69.403842 0.000000 0.000000 0.000000 
0.054734 0.937226 0.246841 -2.410884 4.241970 5.399715 2.569650 -0.439554 -5.274577 2.966401 -0.354282 0.878039 -2.047974 -2.599401 2.998583 0.000000 0.000000 0.000000 2.446890 1.099540 -9.711845 -3.825851 1.072054 9.566901 -1.989354 -7.131192 7.309138 0.000000 0.000000 0.000000 -2.366999 0.203533 -10.290730 2.455485 -1.165678 -0.126959 3.449770 -3.102165 -2.234988 -0.133855 1.025885 -14.957963 0.000000 0.000000 0.000000 -11.020982 -9.873601 3.573931 -67.532142 -62.266583 35.402597 130.164234 -36.408432 -64.384097 0.000000 0.000000 0.000000 5.784500 15.741951 5.573628 75.826541 63.703029 42.339258 -133.276668 37.434435 -69.891051 0.000000 0.000000 0.000000 
0.055308 0.937123 0.245226 -2.366356 4.635611 5.222508 2.392949 -0.434298 -5.167569 3.177414 -0.366464 0.731994 -2.227623 -2.941173 3.004009 0.000000 0.000000 0.000000 2.122439 1.045391 -9.382350 -3.356035 0.956122 9.213887 -2.127558 -7.390965 7.325634 0.000000 0.000000 0.000000 -2.230517 0.202380 -10.002988 2.191020 -1.046674 -0.039364 3.142583 -2.937631 -2.279681 0.068130 0.909661 -14.390158 0.000000 0.000000 0.000000 -11.443780 -9.049326 3.120789 -69.506678 -59.188517 33.990093 131.822231 -39.688908 -71.592153 0.000000 0.000000 0.000000 5.749106 15.607843 5.568743 77.430444 62.148173 42.193121 -133.258699 38.442217 -71.300189 0.000000 0.000000 0.000000 
0.056601 0.936873 0.243275 -2.347721 4.520399 4.842427 2.032450 -0.401958 -4.706462 3.589482 -0.394975 0.477105 -2.175344 -2.884150 2.923716 0.000000 0.000000 0.000000 1.900995 0.960518 -8.710554 -3.195307 0.886900 8.528497 -2.046150 -7.209790 7.246208 0.000000 0.000000 0.000000 -2.124315 0.204504 -9.617700 1.808293 -0.905322 0.603194 3.436816 -2.668916 -2.730735 -0.087397 0.958369 -13.528059 0.000000 0.000000 0.000000 -12.506794 -8.054322 2.624826 -70.860552 -55.157657 31.428348 135.566817 -43.216980 -81.725230 0.000000 0.000000 0.000000 6.404003 14.567651 5.165065 79.878097 58.984815 41.003949 -136.155062 42.288364 -81.289431 0.000000 0.000000 0.000000 
0.058715 0.935978 0.241013 -2.186116 4.707243 4.562089 1.746492 -0.394190 -4.585708 3.535298 -0.392795 0.540350 -2.196126 -3.097802 2.615335 0.000000 0.000000 0.000000 1.547255 0.931223 -8.589589 -3.117062 0.881057 8.698548 -2.167072 -7.388310 6.981708 0.000000 0.000000 0.000000 -2.029442 0.202015 -9.332102 1.705252 -0.862239 0.692608 2.980585 -2.765036 -2.104773 0.295071 0.720787 -13.321187 0.000000 0.000000 0.000000 -14.235152 -6.487979 1.829902 -71.489490 -49.942751 27.357617 142.334807 -49.453635 -99.897523 0.000000 0.000000 0.000000 8.303794 13.364844 4.730433 78.844205 54.255015 35.958247 -142.539719 47.550291 -98.189717 0.000000 0.000000 0.000000 
0.061322 0.935741 0.238816 -1.925883 4.521242 4.271585 1.055844 -0.394785 -4.538261 3.885721 -0.456120 0.885215 -2.089945 -2.961114 2.486780 0.000000 0.000000 0.000000 0.914476 0.866538 -8.255345 -2.863645 0.821306 8.447765 -2.076238 -7.186394 6.884274 0.000000 0.000000 0.000000 -1.876214 0.203325 -8.749389 1.123381 -0.616825 1.339092 3.489836 -3.172529 -2.016191 0.203393 0.709967 -13.110289 0.000000 0.000000 0.000000 -16.166022 -5.016322 1.179611 -71.252319 -44.206986 22.714906 152.409209 -53.895385 -120.448575 0.000000 0.000000 0.000000 10.147130 12.153813 4.114330 76.081571 48.247492 28.994755 -152.189762 52.346320 -120.532198 0.000000 0.000000 0.000000 
0.064099 0.935896 0.236948 -1.855804 4.484611 4.010148 0.664346 -0.397796 -4.536645 4.082841 -0.503106 1.219331 -2.063545 -2.934584 2.440006 0.000000 0.000000 0.000000 0.652773 0.868372 -8.392864 -2.874315 0.855229 9.012302 -2.051236 -7.172122 7.038351 0.000000 0.000000 0.000000 -1.518975 0.214346 -8.294294 1.160968 -0.689482 2.266418 2.784862 -3.435122 -2.222302 0.703785 0.344266 -12.298296 0.000000 0.000000 0.000000 -18.136986 -3.143975 0.135435 -69.827921 -36.740700 16.542606 165.859575 -57.441076 -146.229965 0.000000 0.000000 0.000000 12.337432 10.283733 3.205163 72.550653 39.989262 20.886011 -164.316393 55.148140 -145.001000 0.000000 0.000000 0.000000 
